# xmcd CD database file
#
# Track frame offsets:
#	150
#	15957
#	29463
#	52159
#	67278
#	88954
#	108360
#	126819
#	140221
#	153306
#	170071
#
# Disc length: 2458 seconds
#
# Revision: 0
# Processed by: cddbd v1.5.2PL0 Copyright (c) Steve Scherf et al.
# Submitted via: CDex 1.51
#
DISCID=a109980b
DTITLE=Kenny Rogers - The Gambler
DYEAR=1978
DGENRE=Country
TTITLE0=The Gambler
TTITLE1=I Wish That I Could Hurt That Way Again
TTITLE2=The King Of The Oak Street
TTITLE3=Making Music For Money
TTITLE4=The Hoodooin' Of Miss Fannie Deberry
TTITLE5=She Believes In Me
TTITLE6=Tennessee Bottle
TTITLE7=Sleep Tight, Goodnight Man
TTITLE8=A Little More Like Me
TTITLE9=San Francisco Mabel Joy
TTITLE10=Morgana Jones
EXTD=YEAR: 1978
EXTT0=
EXTT1=
EXTT2=
EXTT3=
EXTT4=
EXTT5=
EXTT6=
EXTT7=
EXTT8=
EXTT9=
EXTT10=
PLAYORDER=
